<svg xmlns="http://www.w3.org/2000/svg" xmlns:xlink="http://www.w3.org/1999/xlink" width="500" zoomAndPan="magnify" viewBox="0 0 375 374.999991" height="500" preserveAspectRatio="xMidYMid meet" version="1.0"><defs><g/></defs><rect x="-37.5" width="450" fill="#ffffff" y="-37.499999" height="449.999989" fill-opacity="1"/><rect x="-37.5" width="450" fill="#0e2442" y="-37.499999" height="449.999989" fill-opacity="1"/><g fill="#ffffff" fill-opacity="1"><g transform="translate(37.494143, 177.749988)"><g><path d="M 5.8125 1.46875 L -3.75 -2.578125 L 11.328125 -41.03125 L 10 -46.171875 C 12.789062 -47.347656 15.800781 -48.300781 19.03125 -49.03125 C 22.269531 -49.769531 25.53125 -50.335938 28.8125 -50.734375 C 32.101562 -51.128906 35.242188 -51.375 38.234375 -51.46875 L 43.890625 -40.078125 C 42.765625 -35.953125 40.828125 -32.085938 38.078125 -28.484375 C 35.335938 -24.890625 31.75 -21.804688 27.3125 -19.234375 C 22.875 -16.660156 17.546875 -14.832031 11.328125 -13.75 Z M 14.484375 -22.5 C 19.972656 -23.925781 24.554688 -26.390625 28.234375 -29.890625 C 31.910156 -33.390625 34.382812 -37.910156 35.65625 -43.453125 L 20.953125 -40.140625 Z M 14.484375 -22.5 "/></g></g></g><g fill="#ffffff" fill-opacity="1"><g transform="translate(78.446708, 177.749988)"><g><path d="M 26.546875 1.46875 L 11.6875 -15.078125 L 5.65625 1.46875 L -3.75 -2.578125 L 11.328125 -41.03125 L 10 -46.171875 C 12.789062 -47.347656 15.800781 -48.300781 19.03125 -49.03125 C 22.269531 -49.769531 25.53125 -50.335938 28.8125 -50.734375 C 32.101562 -51.128906 35.21875 -51.375 38.15625 -51.46875 L 43.828125 -40.078125 C 42.546875 -35.316406 40.09375 -30.878906 36.46875 -26.765625 C 32.84375 -22.648438 28.1875 -19.414062 22.5 -17.0625 L 33.609375 -5.4375 Z M 14.265625 -22.140625 C 19.804688 -23.703125 24.414062 -26.257812 28.09375 -29.8125 C 31.769531 -33.363281 34.269531 -37.910156 35.59375 -43.453125 L 20.953125 -40.140625 Z M 14.265625 -22.140625 "/></g></g></g><g fill="#ffffff" fill-opacity="1"><g transform="translate(120.208027, 177.749988)"><g><path d="M 11.984375 1.625 L -0.875 -3.671875 C -0.78125 -9.410156 -0.0625 -14.972656 1.28125 -20.359375 C 2.632812 -25.753906 4.632812 -30.671875 7.28125 -35.109375 C 9.925781 -39.546875 13.242188 -43.207031 17.234375 -46.09375 C 21.234375 -48.988281 25.929688 -50.78125 31.328125 -51.46875 L 44.265625 -46.171875 C 44.171875 -40.441406 43.445312 -34.878906 42.09375 -29.484375 C 40.75 -24.085938 38.753906 -19.171875 36.109375 -14.734375 C 33.460938 -10.304688 30.140625 -6.644531 26.140625 -3.75 C 22.140625 -0.851562 17.421875 0.9375 11.984375 1.625 Z M 8.890625 -5.875 C 13.398438 -6.757812 17.195312 -8.351562 20.28125 -10.65625 C 23.375 -12.96875 25.890625 -15.835938 27.828125 -19.265625 C 29.765625 -22.691406 31.257812 -26.515625 32.3125 -30.734375 C 33.363281 -34.953125 34.0625 -39.390625 34.40625 -44.046875 C 29.945312 -43.160156 26.171875 -41.550781 23.078125 -39.21875 C 19.992188 -36.894531 17.472656 -34.03125 15.515625 -30.625 C 13.554688 -27.21875 12.0625 -23.40625 11.03125 -19.1875 C 10 -14.976562 9.285156 -10.539062 8.890625 -5.875 Z M 8.890625 -5.875 "/></g></g></g><g fill="#ffffff" fill-opacity="1"><g transform="translate(163.586866, 177.749988)"><g><path d="M 6.6875 1.46875 L -3.3125 -13.15625 L 3.015625 -18.234375 L 8.828125 -8.890625 L 25.140625 -51.46875 L 33.671875 -48.3125 L 17.203125 -2.796875 Z M 6.6875 1.46875 "/></g></g></g><g fill="#ffffff" fill-opacity="1"><g transform="translate(193.657955, 177.749988)"><g><path d="M 7.71875 1.46875 L -2.359375 -6.90625 L 10.953125 -41.03125 L 9.625 -46.171875 C 13.894531 -47.890625 18.394531 -49.164062 23.125 -50 C 27.851562 -50.832031 32.425781 -51.273438 36.84375 -51.328125 L 38.234375 -44.046875 L 20.296875 -40.078125 L 15.21875 -26.25 C 17.476562 -27.03125 19.769531 -27.628906 22.09375 -28.046875 C 24.425781 -28.460938 26.890625 -28.820312 29.484375 -29.125 L 30.65625 -23.234375 L 12.125 -18.015625 L 8.15625 -7.359375 L 28.234375 -12.203125 L 29.859375 -4.40625 Z M 7.71875 1.46875 "/></g></g></g><g fill="#ffffff" fill-opacity="1"><g transform="translate(229.022737, 177.749988)"><g><path d="M 33.890625 -7.578125 L 11.546875 1.546875 L -1.03125 -3.671875 C -0.925781 -9.410156 -0.191406 -14.9375 1.171875 -20.25 C 2.546875 -25.570312 4.53125 -30.425781 7.125 -34.8125 C 9.726562 -39.195312 12.941406 -42.847656 16.765625 -45.765625 C 20.585938 -48.679688 25 -50.582031 30 -51.46875 C 32.300781 -50.539062 34.59375 -49.453125 36.875 -48.203125 C 39.15625 -46.953125 41.078125 -45.566406 42.640625 -44.046875 L 35.734375 -23.75 L 27.5 -25.953125 L 32.875 -44.265625 C 27.675781 -42.691406 23.429688 -40.09375 20.140625 -36.46875 C 16.859375 -32.84375 14.347656 -28.46875 12.609375 -23.34375 C 10.867188 -18.21875 9.679688 -12.664062 9.046875 -6.6875 L 31.46875 -15.4375 Z M 33.890625 -7.578125 "/></g></g></g><g fill="#ffffff" fill-opacity="1"><g transform="translate(269.166537, 177.749988)"><g><path d="M 36.25 -39.484375 L 25.953125 -40.4375 L 10.8125 1.390625 L 0.8125 -2.5 L 15.953125 -41.25 L 4.5625 -42.28125 L 7.5 -51.46875 L 38.53125 -47.359375 Z M 36.25 -39.484375 "/></g></g></g><g fill="#ffffff" fill-opacity="1"><g transform="translate(299.384705, 177.749988)"><g><path d="M 25.734375 1.546875 C 16.328125 1.691406 6.546875 0.0976562 -3.609375 -3.234375 L -1.03125 -12.578125 C 2.894531 -11.398438 6.863281 -10.34375 10.875 -9.40625 C 14.894531 -8.476562 18.914062 -7.695312 22.9375 -7.0625 C 18.675781 -9.457031 14.84375 -12.050781 11.4375 -14.84375 C 8.03125 -17.644531 5.097656 -20.6875 2.640625 -23.96875 L 2.71875 -24.046875 C 2.769531 -24.585938 2.914062 -25.148438 3.15625 -25.734375 C 4.53125 -29.804688 6.40625 -33.679688 8.78125 -37.359375 C 11.164062 -41.035156 14.007812 -44.132812 17.3125 -46.65625 C 20.625 -49.175781 24.335938 -50.78125 28.453125 -51.46875 C 30.753906 -50.582031 33.03125 -49.503906 35.28125 -48.234375 C 37.539062 -46.960938 39.429688 -45.566406 40.953125 -44.046875 L 34.046875 -23.671875 L 26.109375 -25.953125 L 31.625 -44.1875 C 28.476562 -43.257812 25.726562 -41.789062 23.375 -39.78125 C 21.03125 -37.769531 19.023438 -35.425781 17.359375 -32.75 C 15.691406 -30.082031 14.289062 -27.253906 13.15625 -24.265625 L 29.78125 -10.21875 Z M 25.734375 1.546875 "/></g></g></g><g fill="#ffffff" fill-opacity="1"><g transform="translate(37.494143, 240.749984)"><g><path d="M 5.8125 1.46875 L -3.75 -2.578125 L 11.328125 -41.03125 L 10 -46.171875 C 12.789062 -47.347656 15.800781 -48.300781 19.03125 -49.03125 C 22.269531 -49.769531 25.53125 -50.335938 28.8125 -50.734375 C 32.101562 -51.128906 35.242188 -51.375 38.234375 -51.46875 L 43.890625 -40.078125 C 42.765625 -35.953125 40.828125 -32.085938 38.078125 -28.484375 C 35.335938 -24.890625 31.75 -21.804688 27.3125 -19.234375 C 22.875 -16.660156 17.546875 -14.832031 11.328125 -13.75 Z M 14.484375 -22.5 C 19.972656 -23.925781 24.554688 -26.390625 28.234375 -29.890625 C 31.910156 -33.390625 34.382812 -37.910156 35.65625 -43.453125 L 20.953125 -40.140625 Z M 14.484375 -22.5 "/></g></g></g><g fill="#ffffff" fill-opacity="1"><g transform="translate(78.446708, 240.749984)"><g><path d="M 23.828125 -48.3125 L 5.734375 1.46875 L -3.828125 -2.578125 L 15.296875 -51.46875 Z M 23.828125 -48.3125 "/></g></g></g><g fill="#ffffff" fill-opacity="1"><g transform="translate(98.739187, 240.749984)"><g><path d="M 11.984375 1.625 L -0.875 -3.671875 C -0.78125 -9.410156 -0.0625 -14.972656 1.28125 -20.359375 C 2.632812 -25.753906 4.632812 -30.671875 7.28125 -35.109375 C 9.925781 -39.546875 13.242188 -43.207031 17.234375 -46.09375 C 21.234375 -48.988281 25.929688 -50.78125 31.328125 -51.46875 L 44.265625 -46.171875 C 44.171875 -40.441406 43.445312 -34.878906 42.09375 -29.484375 C 40.75 -24.085938 38.753906 -19.171875 36.109375 -14.734375 C 33.460938 -10.304688 30.140625 -6.644531 26.140625 -3.75 C 22.140625 -0.851562 17.421875 0.9375 11.984375 1.625 Z M 8.890625 -5.875 C 13.398438 -6.757812 17.195312 -8.351562 20.28125 -10.65625 C 23.375 -12.96875 25.890625 -15.835938 27.828125 -19.265625 C 29.765625 -22.691406 31.257812 -26.515625 32.3125 -30.734375 C 33.363281 -34.953125 34.0625 -39.390625 34.40625 -44.046875 C 29.945312 -43.160156 26.171875 -41.550781 23.078125 -39.21875 C 19.992188 -36.894531 17.472656 -34.03125 15.515625 -30.625 C 13.554688 -27.21875 12.0625 -23.40625 11.03125 -19.1875 C 10 -14.976562 9.285156 -10.539062 8.890625 -5.875 Z M 8.890625 -5.875 "/></g></g></g><g fill="#ffffff" fill-opacity="1"><g transform="translate(142.118026, 240.749984)"><g><path d="M 30.59375 1.46875 L 18.75 -3.3125 L 18.828125 -37.203125 L 4.921875 1.46875 L -3.828125 -2.578125 L 15.296875 -51.46875 L 26.03125 -47.0625 L 25.59375 -11.25 L 40.953125 -51.46875 L 48.671875 -48.3125 Z M 30.59375 1.46875 "/></g></g></g><g fill="#ffffff" fill-opacity="1"><g transform="translate(187.261429, 240.749984)"><g><path d="M 7.71875 1.46875 L -2.359375 -6.90625 L 10.953125 -41.03125 L 9.625 -46.171875 C 13.894531 -47.890625 18.394531 -49.164062 23.125 -50 C 27.851562 -50.832031 32.425781 -51.273438 36.84375 -51.328125 L 38.234375 -44.046875 L 20.296875 -40.078125 L 15.21875 -26.25 C 17.476562 -27.03125 19.769531 -27.628906 22.09375 -28.046875 C 24.425781 -28.460938 26.890625 -28.820312 29.484375 -29.125 L 30.65625 -23.234375 L 12.125 -18.015625 L 8.15625 -7.359375 L 28.234375 -12.203125 L 29.859375 -4.40625 Z M 7.71875 1.46875 "/></g></g></g><g fill="#ffffff" fill-opacity="1"><g transform="translate(222.626211, 240.749984)"><g><path d="M 7.71875 1.46875 L -2.359375 -6.90625 L 10.953125 -41.03125 L 9.625 -46.171875 C 13.894531 -47.890625 18.394531 -49.164062 23.125 -50 C 27.851562 -50.832031 32.425781 -51.273438 36.84375 -51.328125 L 38.234375 -44.046875 L 20.296875 -40.078125 L 15.21875 -26.25 C 17.476562 -27.03125 19.769531 -27.628906 22.09375 -28.046875 C 24.425781 -28.460938 26.890625 -28.820312 29.484375 -29.125 L 30.65625 -23.234375 L 12.125 -18.015625 L 8.15625 -7.359375 L 28.234375 -12.203125 L 29.859375 -4.40625 Z M 7.71875 1.46875 "/></g></g></g><g fill="#ffffff" fill-opacity="1"><g transform="translate(257.990993, 240.749984)"><g><path d="M 26.546875 1.46875 L 11.6875 -15.078125 L 5.65625 1.46875 L -3.75 -2.578125 L 11.328125 -41.03125 L 10 -46.171875 C 12.789062 -47.347656 15.800781 -48.300781 19.03125 -49.03125 C 22.269531 -49.769531 25.53125 -50.335938 28.8125 -50.734375 C 32.101562 -51.128906 35.21875 -51.375 38.15625 -51.46875 L 43.828125 -40.078125 C 42.546875 -35.316406 40.09375 -30.878906 36.46875 -26.765625 C 32.84375 -22.648438 28.1875 -19.414062 22.5 -17.0625 L 33.609375 -5.4375 Z M 14.265625 -22.140625 C 19.804688 -23.703125 24.414062 -26.257812 28.09375 -29.8125 C 31.769531 -33.363281 34.269531 -37.910156 35.59375 -43.453125 L 20.953125 -40.140625 Z M 14.265625 -22.140625 "/></g></g></g></svg>